<svg id="SvgjsSvg1019" width="288" height="288" xmlns="http://www.w3.org/2000/svg" version="1.1" xmlns:xlink="http://www.w3.org/1999/xlink" xmlns:svgjs="http://svgjs.com/svgjs"><defs id="SvgjsDefs1020"></defs><g id="SvgjsG1021"><svg xmlns="http://www.w3.org/2000/svg" width="288" height="288" version="1.0" viewBox="0 0 1600 1600"><g transform="matrix(.1 0 0 -.1 0 1600)" fill="#127890" class="color000 svgShape"><path d="M4005 15989 c-422 -40 -871 -217 -1223 -481 -120 -91 -320 -283 -416-402 -163 -200 -314 -465 -401 -700 -46 -126 -99 -330 -122 -476 -17 -110 -18
-356 -18 -5810 0 -5414 1 -5700 18 -5805 89 -551 340 -1031 733 -1404 413
-391 922 -616 1495 -661 104 -8 1180 -10 3909 -7 l3765 3 125 21 c330 56 624
162 890 323 664 400 1098 1090 1169 1860 8 79 11 1467 11 4440 0 4782 5 4418
-65 4627 -81 241 -252 512 -531 838 -171 201 -403 440 -1016 1048 -354 351
-827 822 -1052 1045 -224 224 -496 492 -604 596 -606 583 -955 825 -1337 929
l-80 22 -2580 1 c-1419 1 -2620 -2 -2670 -7z m4749 -1238 c132 -65 232 -200
280 -377 49 -183 49 -191 56 -1499 5 -1157 7 -1233 24 -1285 68 -205 211 -348
416 -416 52 -17 128 -19 1270 -24 1069 -6 1228 -9 1319 -23 147 -24 212 -43
319 -93 143 -69 225 -163 269 -310 17 -56 18 -255 21 -4059 2 -2818 0 -4032
-8 -4107 -42 -423 -286 -784 -655 -970 -155 -79 -286 -114 -480 -129 -85 -6
-1414 -9 -3805 -6 -3378 3 -3681 4 -3755 20 -254 52 -458 160 -635 337 -147
145 -243 303 -305 500 -59 190 -55 -227 -53 5862 l3 5583 32 117 c133 492 533
844 1028 907 39 5 1071 8 2330 7 l2260 -1 69 -34z" fill="#127890" class="color000 svgShape"></path><path d="M4647 9924c-216-52-393-232-448-454-19-76-16-221 5-295 49-168 169-312 317-383 46-22 105-45 131-51 35-8 901-11 3195-11 3503 0 3206-6 3352 70 135 70 237 188 288 331 34 96 42 242 19 341-52 223-239 406-463 453-101 22-6308 21-6396-1zM4665 7504c-217-47-394-216-461-440-21-72-24-216-5-294 40-166 173-332 323-404 147-70-52-66 2713-65 2750 0 2590-4 2728 62 304 144 434 513 286 810-80 162-210 269-394 324-57 17-192 18-2590 20-2208 1-2539 0-2600-13zM4641 5074c-176-47-318-165-395-328-46-96-61-164-60-271 1-160 61-303 174-415 82-81 158-127 262-157l80-23 3143 0c3096 0 3143 0 3219 20 115 29 189 73 281 165 122 121 175 248 175 420 0 172-53 299-175 420-92 92-166 136-281 165-76 20-122 20-3223 19-2715 0-3153-2-3200-15z" fill="#127890" class="color000 svgShape"></path></g></svg></g></svg>